<svg xmlns="http://www.w3.org/2000/svg" version="1.1" xmlns:xlink="http://www.w3.org/1999/xlink" xmlns:svgjs="http://svgjs.dev/svgjs" width="1000" height="623" viewBox="0 0 1000 623"><g transform="matrix(1,0,0,1,-0.6060606060606233,0.2522267206477409)"><svg viewBox="0 0 396 247" data-background-color="#ff5858" preserveAspectRatio="xMidYMid meet" height="623" width="1000" xmlns="http://www.w3.org/2000/svg" xmlns:xlink="http://www.w3.org/1999/xlink"><g id="tight-bounds" transform="matrix(1,0,0,1,0.2400000000000091,-0.09999999999999432)"><svg viewBox="0 0 395.52 247.2" height="247.2" width="395.52"><g><svg></svg></g><g><svg viewBox="0 0 395.52 247.2" height="247.2" width="395.52"><g transform="matrix(1,0,0,1,39.55199999999999,37.36112941176471)"><svg viewBox="0 0 316.416 172.47774117647057" height="172.47774117647057" width="316.416"><g><svg viewBox="0 0 316.416 172.47774117647057" height="172.47774117647057" width="316.416"><g><svg viewBox="0 0 316.416 172.47774117647057" height="172.47774117647057" width="316.416"><g><svg viewBox="0 0 316.416 172.47774117647057" height="172.47774117647057" width="316.416"><g id="textblocktransform"><svg viewBox="0 0 316.416 172.47774117647057" height="172.47774117647057" width="316.416" id="textblock"><g><svg viewBox="0 0 316.416 172.47774117647057" height="172.47774117647057" width="316.416"><g transform="matrix(1,0,0,1,0,0)"><svg width="316.416" viewBox="-0.5 -38.29999923706055 77.5 42.70000076293945" height="172.47774117647057" data-palette-color="#5e1914"><path d="M8.5-13.3L7.55 0 3.5 0 5.95-33.7 11.1-33.7 15.55-21.4 20.95-5.7Q23.85-13.9 26.65-21.4L26.65-21.4 31.3-33.7 36.45-33.7 39.4 0 35.35 0 34.2-13.3 33-28.25Q30.35-20.85 27.55-13.3L27.55-13.3 22.85-0.75 19-0.75 14.55-13.3 9.45-27.95Q9.45-26 8.5-13.3L8.5-13.3ZM72.95-2.8L73-2.65Q68.95 0.4 62.55 0.4L62.55 0.4Q54.75 0.4 50-4.23 45.25-8.85 45.25-16.9L45.25-16.9Q45.25-24.55 49.97-29.43 54.7-34.3 61.9-34.3L61.9-34.3Q67.85-34.3 71.75-32L71.75-32 71.75-27.65Q67.65-30.35 62.25-30.35L62.25-30.35Q56.6-30.35 53.05-26.68 49.5-23 49.5-16.9L49.5-16.9Q49.5-10.65 53-7.08 56.5-3.5 62.65-3.5L62.65-3.5Q66.05-3.5 68.95-4.85L68.95-4.85 68.95-15.35 61.55-15.35 61.55-18.9 73-18.9 73-2.8 72.95-2.8Z" opacity="1" transform="matrix(1,0,0,1,0,0)" fill="#5e1914" class="wordmark-text-0" data-fill-palette-color="primary" id="text-0"></path></svg></g></svg></g></svg></g></svg></g><g></g></svg></g></svg></g></svg></g><g mask="url(&quot;#f8865797-87e0-49a2-b335-1dea5a1efb4c&quot;)"><g transform="matrix(2.452000187072768, 0, 0, 2.452000187072768, 90.83072099843758, 1.0000000000000142)"><svg xmlns="http://www.w3.org/2000/svg" xmlns:xlink="http://www.w3.org/1999/xlink" version="1.1" x="0" y="0" viewBox="6.391000747680664 0 87.21800231933594 99.99999237060547" enable-background="new 0 0 100 100" xml:space="preserve" height="99.99999237060547" width="87.21800231933594" class="icon-none" data-fill-palette-color="accent" id="none"><path fill="#ed2647" d="M77.806 12.728C67.152 12.728 56.381 8.48 50 0c-6.38 8.479-17.154 12.727-27.807 12.727-5.508 0-10.983-1.135-15.802-3.409 0.54 14.316 1.604 28.825 3.999 42.962 1.222 7.749 2.422 16.888 6.666 23.668 3.729 6.528 9.515 11.869 15.722 16.006 4.715 3.137 9.846 5.717 15.187 7.612 0.853 0.303 1.502 0.434 2.1 0.434 1.036 0 1.917-0.394 3.434-0.974 12.28-4.715 25.46-13.388 30.882-25.855 4.878-11.093 5.954-24.273 7.206-36.19 0.968-9.189 1.671-18.426 2.022-27.663C88.79 11.592 83.312 12.728 77.806 12.728zM81.641 35.937l-0.267 2.568c-0.396 3.824-0.797 7.694-1.326 11.496H50v39.658c-0.001 0-0.002 0.001-0.003 0.001-4.081-1.561-8.003-3.585-11.673-6.026-5.664-3.775-10.016-8.147-12.584-12.645l-0.1-0.175-0.107-0.171c-2.877-4.597-4.016-11.91-5.021-18.363l-0.244-1.557-0.009-0.056-0.01-0.056c-0.034-0.201-0.065-0.408-0.099-0.609H50V13.899l0 0c7.62 5.639 17.418 8.829 27.806 8.829 1.693 0 3.378-0.086 5.046-0.257C82.525 26.877 82.121 31.375 81.641 35.937z" data-fill-palette-color="accent"></path></svg></g></g><mask id="f8865797-87e0-49a2-b335-1dea5a1efb4c"><rect width="640" height="400" fill="white"></rect><g transform="matrix(1,0,0,1,39.55199999999999,37.36112941176471)"><svg viewBox="0 0 316.416 172.47774117647057" height="172.47774117647057" width="316.416"><g><svg viewBox="0 0 316.416 172.47774117647057" height="172.47774117647057" width="316.416"><g><svg viewBox="0 0 316.416 172.47774117647057" height="172.47774117647057" width="316.416"><g><svg viewBox="0 0 316.416 172.47774117647057" height="172.47774117647057" width="316.416"><g id="SvgjsG1062"><svg viewBox="0 0 316.416 172.47774117647057" height="172.47774117647057" width="316.416" id="SvgjsSvg1061"><g><svg viewBox="0 0 316.416 172.47774117647057" height="172.47774117647057" width="316.416"><g transform="matrix(1,0,0,1,0,0)"><svg width="316.416" viewBox="-0.5 -38.29999923706055 77.5 42.70000076293945" height="172.47774117647057" data-palette-color="#5e1914"><path d="M8.5-13.3L7.55 0 3.5 0 5.95-33.7 11.1-33.7 15.55-21.4 20.95-5.7Q23.85-13.9 26.65-21.4L26.65-21.4 31.3-33.7 36.45-33.7 39.4 0 35.35 0 34.2-13.3 33-28.25Q30.35-20.85 27.55-13.3L27.55-13.3 22.85-0.75 19-0.75 14.55-13.3 9.45-27.95Q9.45-26 8.5-13.3L8.5-13.3ZM72.95-2.8L73-2.65Q68.95 0.4 62.55 0.4L62.55 0.4Q54.75 0.4 50-4.23 45.25-8.85 45.25-16.9L45.25-16.9Q45.25-24.55 49.97-29.43 54.7-34.3 61.9-34.3L61.9-34.3Q67.85-34.3 71.75-32L71.75-32 71.75-27.65Q67.65-30.35 62.25-30.35L62.25-30.35Q56.6-30.35 53.05-26.68 49.5-23 49.5-16.9L49.5-16.9Q49.5-10.65 53-7.08 56.5-3.5 62.65-3.5L62.65-3.5Q66.05-3.5 68.95-4.85L68.95-4.85 68.95-15.35 61.55-15.35 61.55-18.9 73-18.9 73-2.8 72.95-2.8Z" opacity="1" transform="matrix(1,0,0,1,0,0)" fill="#5e1914" class="wordmark-text-0" data-fill-palette-color="primary" id="SvgjsPath1060" stroke-width="7" stroke="black" stroke-linejoin="round"></path></svg></g></svg></g></svg></g></svg></g><g></g></svg></g></svg></g></svg></g></mask></svg></g><defs></defs></svg><rect width="395.52" height="247.2" fill="none" stroke="none" visibility="hidden"></rect></g></svg></g></svg>